<?xml version="1.0" encoding="utf-8" ?>
<svg xmlns="http://www.w3.org/2000/svg" xmlns:xlink="http://www.w3.org/1999/xlink" width="512" height="512">
	<path fill="#FBF6EF" d="M0 0L0 512L512 512L512 0L0 0Z"/>
	<path fill="#EAD7C3" d="M64.1095 112.624L11.4494 112.634C10.7604 112.638 10.0481 112.678 9.36257 112.621C6.60915 112.391 5.04705 109.269 6.25385 106.885L23.9055 75.8055L58.5247 16.6954C59.8422 14.4738 61.057 11.678 63.9558 11.3993C65.5113 11.294 66.852 12.2779 67.6628 13.5348L113.035 91.6225L120.32 104.441C120.942 105.509 121.796 106.748 122.069 107.952C122.523 109.957 121.044 112.233 118.988 112.566L118.875 112.583C118.282 112.675 117.652 112.629 117.053 112.629L64.1095 112.624ZM64.07 25.3218L39.5992 67.0807L25.172 91.7993L19.7349 101.6C19.3773 102.244 18.9634 102.861 18.6086 103.508L64.1562 103.508L107.6 103.503C108.198 103.501 108.82 103.531 109.414 103.472L109.373 103.431C109.16 103.212 109.096 102.96 108.938 102.71L86.137 63.0093L65.5708 27.8195C65.0825 26.9933 64.62 26.1073 64.07 25.3218Z"/>
	<path fill="#EAD7C3" d="M65.203 98.5447C54.5977 98.7013 45.3698 92.2295 43.0735 81.6035C40.2293 68.4417 49.4435 56.6058 62.7287 55.6515C68.265 55.2178 73.7798 57.3805 77.9567 60.9378C86.7138 68.395 87.8105 82.1415 80.2968 90.8762C76.2278 95.6068 71.309 98.0725 65.203 98.5447Z"/>
	<path fill="#DCE0D9" d="M191.891 15.3765L244.551 15.3658C245.24 15.3625 245.952 15.322 246.637 15.3792C249.391 15.6095 250.953 18.7308 249.746 21.115L232.095 52.1945L197.475 111.305C196.158 113.526 194.943 116.322 192.044 116.601C190.489 116.706 189.148 115.722 188.337 114.465L142.965 36.3775L135.679 23.559C135.058 22.4908 134.204 21.2518 133.931 20.0482C133.477 18.0425 134.956 15.7673 137.012 15.434L137.125 15.4172C137.718 15.325 138.348 15.3708 138.947 15.3713L191.891 15.3765ZM191.93 102.678L216.401 60.9193L230.828 36.2007L236.265 26.4002C236.623 25.7558 237.037 25.1388 237.391 24.492L191.844 24.4917L148.4 24.4968C147.802 24.4995 147.179 24.4693 146.586 24.5285L146.627 24.569C146.839 24.7885 146.904 25.04 147.062 25.2895L169.863 64.9907L190.429 100.18C190.917 101.007 191.38 101.893 191.93 102.678Z"/>
	<path fill="#DCE0D9" d="M190.797 29.4553C201.402 29.2987 210.63 35.7705 212.927 46.3965C215.771 59.5583 206.556 71.3942 193.271 72.3485C187.735 72.7823 182.22 70.6195 178.043 67.0623C169.286 59.605 168.19 45.8585 175.703 37.1238C179.772 32.3932 184.691 29.9275 190.797 29.4553Z"/>
	<path fill="#EAD7C3" d="M320.11 112.624L267.449 112.634C266.76 112.638 266.048 112.678 265.363 112.621C262.609 112.391 261.047 109.269 262.254 106.885L279.906 75.8055L314.525 16.6954C315.842 14.4738 317.057 11.678 319.956 11.3993C321.511 11.294 322.852 12.2779 323.663 13.5348L369.035 91.6225L376.32 104.441C376.942 105.509 377.796 106.748 378.069 107.952C378.523 109.957 377.044 112.233 374.988 112.566L374.875 112.583C374.282 112.675 373.652 112.629 373.053 112.629L320.11 112.624ZM320.07 25.3218L295.599 67.0807L281.172 91.7993L275.735 101.6C275.377 102.244 274.963 102.861 274.609 103.508L320.156 103.508L363.6 103.503C364.198 103.501 364.82 103.531 365.414 103.472L365.373 103.431C365.16 103.212 365.096 102.96 364.938 102.71L342.137 63.0093L321.571 27.8195C321.082 26.9933 320.62 26.1073 320.07 25.3218Z"/>
	<path fill="#EAD7C3" d="M321.203 98.5447C310.598 98.7013 301.37 92.2295 299.074 81.6035C296.229 68.4417 305.443 56.6058 318.729 55.6515C324.265 55.2178 329.78 57.3805 333.957 60.9378C342.714 68.395 343.81 82.1415 336.297 90.8762C332.228 95.6068 327.309 98.0725 321.203 98.5447Z"/>
	<path fill="#DCE0D9" d="M447.89 15.3765L500.551 15.3658C501.24 15.3625 501.952 15.322 502.637 15.3792C505.391 15.6095 506.953 18.7308 505.746 21.115L488.095 52.1945L453.475 111.305C452.158 113.526 450.943 116.322 448.044 116.601C446.489 116.706 445.148 115.722 444.337 114.465L398.965 36.3775L391.68 23.559C391.058 22.4908 390.204 21.2518 389.932 20.0482C389.477 18.0425 390.956 15.7673 393.012 15.434L393.125 15.4172C393.717 15.325 394.348 15.3708 394.947 15.3713L447.89 15.3765ZM447.93 102.678L472.401 60.9193L486.828 36.2007L492.265 26.4002C492.623 25.7558 493.037 25.1388 493.391 24.492L447.844 24.4917L404.401 24.4968C403.802 24.4995 403.18 24.4693 402.586 24.5285L402.627 24.569C402.839 24.7885 402.904 25.04 403.062 25.2895L425.863 64.9907L446.429 100.18C446.918 101.007 447.38 101.893 447.93 102.678Z"/>
	<path fill="#DCE0D9" d="M446.797 29.4553C457.402 29.2987 466.63 35.7705 468.927 46.3965C471.771 59.5583 462.557 71.3942 449.271 72.3485C443.735 72.7823 438.22 70.6195 434.043 67.0623C425.286 59.605 424.19 45.8585 431.703 37.1238C435.772 32.3932 440.691 29.9275 446.797 29.4553Z"/>
	<path fill="#DCE0D9" d="M-0.1095 143.376L52.551 143.366C53.24 143.363 53.952 143.322 54.637 143.379C57.391 143.609 58.953 146.731 57.746 149.115L40.095 180.195L5.4753 239.305C4.1577 241.526 2.943 244.322 0.0443 244.601C-1.5113 244.706 -2.852 243.722 -3.6628 242.465L-49.0348 164.377L-56.3205 151.559C-56.9417 150.491 -57.7957 149.252 -58.0685 148.048C-58.523 146.042 -57.0438 143.767 -54.988 143.434L-54.875 143.417C-54.2825 143.325 -53.652 143.371 -53.0528 143.371L-0.1095 143.376ZM-0.07 230.678L24.4008 188.919L38.828 164.201L44.265 154.4C44.623 153.756 45.037 153.139 45.391 152.492L-0.1562 152.492L-43.5995 152.497C-44.1977 152.5 -44.8205 152.469 -45.4142 152.529L-45.3732 152.569C-45.1605 152.788 -45.0962 153.04 -44.9382 153.29L-22.137 192.991L-1.5708 228.18C-1.0825 229.007 -0.62 229.893 -0.07 230.678Z"/>
	<path fill="#DCE0D9" d="M-1.203 157.455C9.4023 157.299 18.6302 163.77 20.9265 174.397C23.7707 187.558 14.5565 199.394 1.2713 200.349C-4.265 200.782 -9.7798 198.62 -13.9567 195.062C-22.7138 187.605 -23.8105 173.858 -16.2968 165.124C-12.2278 160.393 -7.309 157.928 -1.203 157.455Z"/>
	<path fill="#EAD7C3" d="M128.109 240.624L75.4494 240.634C74.7604 240.638 74.0481 240.678 73.3626 240.621C70.6091 240.391 69.047 237.269 70.2538 234.885L87.9055 203.805L122.525 144.695C123.842 142.474 125.057 139.678 127.956 139.399C129.511 139.294 130.852 140.278 131.663 141.535L177.035 219.623L184.32 232.441C184.942 233.509 185.796 234.748 186.069 235.952C186.523 237.957 185.044 240.233 182.988 240.566L182.875 240.583C182.282 240.675 181.652 240.629 181.053 240.629L128.109 240.624ZM128.07 153.322L103.599 195.081L89.172 219.799L83.7349 229.6C83.3773 230.244 82.9634 230.861 82.6086 231.508L128.156 231.508L171.6 231.503C172.198 231.501 172.82 231.531 173.414 231.472L173.373 231.431C173.16 231.212 173.096 230.96 172.938 230.71L150.137 191.009L129.571 155.82C129.082 154.993 128.62 154.107 128.07 153.322Z"/>
	<path fill="#EAD7C3" d="M129.203 226.545C118.598 226.701 109.37 220.23 107.073 209.603C104.229 196.442 113.444 184.606 126.729 183.651C132.265 183.218 137.78 185.38 141.957 188.938C150.714 196.395 151.81 210.142 144.297 218.876C140.228 223.607 135.309 226.072 129.203 226.545Z"/>
	<path fill="#DCE0D9" d="M255.891 143.376L308.551 143.366C309.24 143.363 309.952 143.322 310.637 143.379C313.391 143.609 314.953 146.731 313.746 149.115L296.095 180.195L261.475 239.305C260.158 241.526 258.943 244.322 256.044 244.601C254.489 244.706 253.148 243.722 252.337 242.465L206.965 164.377L199.679 151.559C199.058 150.491 198.204 149.252 197.931 148.048C197.477 146.042 198.956 143.767 201.012 143.434L201.125 143.417C201.718 143.325 202.348 143.371 202.947 143.371L255.891 143.376ZM255.93 230.678L280.401 188.919L294.828 164.201L300.265 154.4C300.623 153.756 301.037 153.139 301.391 152.492L255.844 152.492L212.4 152.497C211.802 152.5 211.179 152.469 210.586 152.529L210.627 152.569C210.839 152.788 210.904 153.04 211.062 153.29L233.863 192.991L254.429 228.18C254.917 229.007 255.38 229.893 255.93 230.678Z"/>
	<path fill="#DCE0D9" d="M254.797 157.455C265.402 157.299 274.63 163.77 276.927 174.397C279.771 187.558 270.557 199.394 257.271 200.349C251.735 200.782 246.22 198.62 242.043 195.062C233.286 187.605 232.19 173.858 239.703 165.124C243.772 160.393 248.691 157.928 254.797 157.455Z"/>
	<path fill="#EAD7C3" d="M384.11 240.624L331.449 240.634C330.76 240.638 330.048 240.678 329.363 240.621C326.609 240.391 325.047 237.269 326.254 234.885L343.906 203.805L378.525 144.695C379.842 142.474 381.057 139.678 383.956 139.399C385.511 139.294 386.852 140.278 387.663 141.535L433.035 219.623L440.32 232.441C440.942 233.509 441.796 234.748 442.069 235.952C442.523 237.957 441.044 240.233 438.988 240.566L438.875 240.583C438.282 240.675 437.652 240.629 437.053 240.629L384.11 240.624ZM384.07 153.322L359.599 195.081L345.172 219.799L339.735 229.6C339.377 230.244 338.963 230.861 338.609 231.508L384.156 231.508L427.6 231.503C428.198 231.501 428.82 231.531 429.414 231.472L429.373 231.431C429.16 231.212 429.096 230.96 428.938 230.71L406.137 191.009L385.571 155.82C385.082 154.993 384.62 154.107 384.07 153.322Z"/>
	<path fill="#EAD7C3" d="M385.203 226.545C374.598 226.701 365.37 220.23 363.074 209.603C360.229 196.442 369.443 184.606 382.729 183.651C388.265 183.218 393.78 185.38 397.957 188.938C406.714 196.395 407.81 210.142 400.297 218.876C396.228 223.607 391.309 226.072 385.203 226.545Z"/>
	<path fill="#DCE0D9" d="M511.89 143.376L564.551 143.366C565.24 143.363 565.952 143.322 566.637 143.379C569.391 143.609 570.953 146.731 569.746 149.115L552.095 180.195L517.475 239.305C516.158 241.526 514.943 244.322 512.044 244.601C510.489 244.706 509.148 243.722 508.337 242.465L462.965 164.377L455.68 151.559C455.058 150.491 454.204 149.252 453.932 148.048C453.477 146.042 454.956 143.767 457.012 143.434L457.125 143.417C457.717 143.325 458.348 143.371 458.947 143.371L511.89 143.376ZM511.93 230.678L536.401 188.919L550.828 164.201L556.265 154.4C556.623 153.756 557.037 153.139 557.391 152.492L511.844 152.492L468.401 152.497C467.802 152.5 467.18 152.469 466.586 152.529L466.627 152.569C466.839 152.788 466.904 153.04 467.062 153.29L489.863 192.991L510.429 228.18C510.918 229.007 511.38 229.893 511.93 230.678Z"/>
	<path fill="#DCE0D9" d="M510.797 157.455C521.402 157.299 530.63 163.77 532.927 174.397C535.771 187.558 526.557 199.394 513.271 200.349C507.735 200.782 502.22 198.62 498.043 195.062C489.286 187.605 488.19 173.858 495.703 165.124C499.772 160.393 504.691 157.928 510.797 157.455Z"/>
	<path fill="#EAD7C3" d="M64.1095 368.624L11.4494 368.634C10.7604 368.638 10.0481 368.678 9.36257 368.621C6.60915 368.391 5.04705 365.269 6.25385 362.885L23.9055 331.805L58.5247 272.695C59.8422 270.474 61.057 267.678 63.9558 267.399C65.5113 267.294 66.852 268.278 67.6628 269.535L113.035 347.623L120.32 360.441C120.942 361.509 121.796 362.748 122.069 363.952C122.523 365.957 121.044 368.233 118.988 368.566L118.875 368.583C118.282 368.675 117.652 368.629 117.053 368.629L64.1095 368.624ZM64.07 281.322L39.5992 323.081L25.172 347.799L19.7349 357.6C19.3773 358.244 18.9634 358.861 18.6086 359.508L64.1562 359.508L107.6 359.503C108.198 359.501 108.82 359.531 109.414 359.472L109.373 359.431C109.16 359.212 109.096 358.96 108.938 358.71L86.137 319.009L65.5708 283.82C65.0825 282.993 64.62 282.107 64.07 281.322Z"/>
	<path fill="#EAD7C3" d="M65.203 354.545C54.5977 354.701 45.3698 348.23 43.0735 337.603C40.2293 324.442 49.4435 312.606 62.7287 311.651C68.265 311.218 73.7798 313.38 77.9567 316.938C86.7138 324.395 87.8105 338.142 80.2968 346.876C76.2278 351.607 71.309 354.072 65.203 354.545Z"/>
	<path fill="#DCE0D9" d="M191.891 271.377L244.551 271.366C245.24 271.363 245.952 271.322 246.637 271.379C249.391 271.61 250.953 274.731 249.746 277.115L232.095 308.195L197.475 367.305C196.158 369.526 194.943 372.322 192.044 372.601C190.489 372.706 189.148 371.722 188.337 370.465L142.965 292.377L135.679 279.559C135.058 278.491 134.204 277.252 133.931 276.048C133.477 274.043 134.956 271.767 137.012 271.434L137.125 271.417C137.718 271.325 138.348 271.371 138.947 271.371L191.891 271.377ZM191.93 358.678L216.401 316.919L230.828 292.201L236.265 282.4C236.623 281.756 237.037 281.139 237.391 280.492L191.844 280.492L148.4 280.497C147.802 280.5 147.179 280.469 146.586 280.529L146.627 280.569C146.839 280.788 146.904 281.04 147.062 281.289L169.863 320.991L190.429 356.18C190.917 357.007 191.38 357.893 191.93 358.678Z"/>
	<path fill="#DCE0D9" d="M190.797 285.455C201.402 285.299 210.63 291.77 212.927 302.397C215.771 315.558 206.556 327.394 193.271 328.349C187.735 328.782 182.22 326.62 178.043 323.062C169.286 315.605 168.19 301.858 175.703 293.124C179.772 288.393 184.691 285.928 190.797 285.455Z"/>
	<path fill="#EAD7C3" d="M320.11 368.624L267.449 368.634C266.76 368.638 266.048 368.678 265.363 368.621C262.609 368.391 261.047 365.269 262.254 362.885L279.906 331.805L314.525 272.695C315.842 270.474 317.057 267.678 319.956 267.399C321.511 267.294 322.852 268.278 323.663 269.535L369.035 347.623L376.32 360.441C376.942 361.509 377.796 362.748 378.069 363.952C378.523 365.957 377.044 368.233 374.988 368.566L374.875 368.583C374.282 368.675 373.652 368.629 373.053 368.629L320.11 368.624ZM320.07 281.322L295.599 323.081L281.172 347.799L275.735 357.6C275.377 358.244 274.963 358.861 274.609 359.508L320.156 359.508L363.6 359.503C364.198 359.501 364.82 359.531 365.414 359.472L365.373 359.431C365.16 359.212 365.096 358.96 364.938 358.71L342.137 319.009L321.571 283.82C321.082 282.993 320.62 282.107 320.07 281.322Z"/>
	<path fill="#EAD7C3" d="M321.203 354.545C310.598 354.701 301.37 348.23 299.074 337.603C296.229 324.442 305.443 312.606 318.729 311.651C324.265 311.218 329.78 313.38 333.957 316.938C342.714 324.395 343.81 338.142 336.297 346.876C332.228 351.607 327.309 354.072 321.203 354.545Z"/>
	<path fill="#DCE0D9" d="M447.89 271.377L500.551 271.366C501.24 271.363 501.952 271.322 502.637 271.379C505.391 271.61 506.953 274.731 505.746 277.115L488.095 308.195L453.475 367.305C452.158 369.526 450.943 372.322 448.044 372.601C446.489 372.706 445.148 371.722 444.337 370.465L398.965 292.377L391.68 279.559C391.058 278.491 390.204 277.252 389.932 276.048C389.477 274.043 390.956 271.767 393.012 271.434L393.125 271.417C393.717 271.325 394.348 271.371 394.947 271.371L447.89 271.377ZM447.93 358.678L472.401 316.919L486.828 292.201L492.265 282.4C492.623 281.756 493.037 281.139 493.391 280.492L447.844 280.492L404.401 280.497C403.802 280.5 403.18 280.469 402.586 280.529L402.627 280.569C402.839 280.788 402.904 281.04 403.062 281.289L425.863 320.991L446.429 356.18C446.918 357.007 447.38 357.893 447.93 358.678Z"/>
	<path fill="#DCE0D9" d="M446.797 285.455C457.402 285.299 466.63 291.77 468.927 302.397C471.771 315.558 462.557 327.394 449.271 328.349C443.735 328.782 438.22 326.62 434.043 323.062C425.286 315.605 424.19 301.858 431.703 293.124C435.772 288.393 440.691 285.928 446.797 285.455Z"/>
	<path fill="#DCE0D9" d="M-0.1095 399.377L52.551 399.366C53.24 399.363 53.952 399.322 54.637 399.379C57.391 399.61 58.953 402.731 57.746 405.115L40.095 436.195L5.4753 495.305C4.1577 497.526 2.943 500.322 0.0443 500.601C-1.5113 500.706 -2.852 499.722 -3.6628 498.465L-49.0348 420.377L-56.3205 407.559C-56.9417 406.491 -57.7957 405.252 -58.0685 404.048C-58.523 402.043 -57.0438 399.767 -54.988 399.434L-54.875 399.417C-54.2825 399.325 -53.652 399.371 -53.0528 399.371L-0.1095 399.377ZM-0.07 486.678L24.4008 444.919L38.828 420.201L44.265 410.4C44.623 409.756 45.037 409.139 45.391 408.492L-0.1562 408.492L-43.5995 408.497C-44.1977 408.5 -44.8205 408.469 -45.4142 408.529L-45.3732 408.569C-45.1605 408.788 -45.0962 409.04 -44.9382 409.289L-22.137 448.991L-1.5708 484.18C-1.0825 485.007 -0.62 485.893 -0.07 486.678Z"/>
	<path fill="#DCE0D9" d="M-1.203 413.455C9.4023 413.299 18.6302 419.77 20.9265 430.397C23.7707 443.558 14.5565 455.394 1.2713 456.349C-4.265 456.782 -9.7798 454.62 -13.9567 451.062C-22.7138 443.605 -23.8105 429.858 -16.2968 421.124C-12.2278 416.393 -7.309 413.928 -1.203 413.455Z"/>
	<path fill="#EAD7C3" d="M128.109 496.624L75.4494 496.634C74.7604 496.638 74.0481 496.678 73.3626 496.621C70.6091 496.391 69.047 493.269 70.2538 490.885L87.9055 459.805L122.525 400.695C123.842 398.474 125.057 395.678 127.956 395.399C129.511 395.294 130.852 396.278 131.663 397.535L177.035 475.623L184.32 488.441C184.942 489.509 185.796 490.748 186.069 491.952C186.523 493.957 185.044 496.233 182.988 496.566L182.875 496.583C182.282 496.675 181.652 496.629 181.053 496.629L128.109 496.624ZM128.07 409.322L103.599 451.081L89.172 475.799L83.7349 485.6C83.3773 486.244 82.9634 486.861 82.6086 487.508L128.156 487.508L171.6 487.503C172.198 487.501 172.82 487.531 173.414 487.472L173.373 487.431C173.16 487.212 173.096 486.96 172.938 486.71L150.137 447.009L129.571 411.82C129.082 410.993 128.62 410.107 128.07 409.322Z"/>
	<path fill="#EAD7C3" d="M129.203 482.545C118.598 482.701 109.37 476.23 107.073 465.603C104.229 452.442 113.444 440.606 126.729 439.651C132.265 439.218 137.78 441.38 141.957 444.938C150.714 452.395 151.81 466.142 144.297 474.876C140.228 479.607 135.309 482.072 129.203 482.545Z"/>
	<path fill="#DCE0D9" d="M255.891 399.377L308.551 399.366C309.24 399.363 309.952 399.322 310.637 399.379C313.391 399.61 314.953 402.731 313.746 405.115L296.095 436.195L261.475 495.305C260.158 497.526 258.943 500.322 256.044 500.601C254.489 500.706 253.148 499.722 252.337 498.465L206.965 420.377L199.679 407.559C199.058 406.491 198.204 405.252 197.931 404.048C197.477 402.043 198.956 399.767 201.012 399.434L201.125 399.417C201.718 399.325 202.348 399.371 202.947 399.371L255.891 399.377ZM255.93 486.678L280.401 444.919L294.828 420.201L300.265 410.4C300.623 409.756 301.037 409.139 301.391 408.492L255.844 408.492L212.4 408.497C211.802 408.5 211.179 408.469 210.586 408.529L210.627 408.569C210.839 408.788 210.904 409.04 211.062 409.289L233.863 448.991L254.429 484.18C254.917 485.007 255.38 485.893 255.93 486.678Z"/>
	<path fill="#DCE0D9" d="M254.797 413.455C265.402 413.299 274.63 419.77 276.927 430.397C279.771 443.558 270.557 455.394 257.271 456.349C251.735 456.782 246.22 454.62 242.043 451.062C233.286 443.605 232.19 429.858 239.703 421.124C243.772 416.393 248.691 413.928 254.797 413.455Z"/>
	<path fill="#EAD7C3" d="M384.11 496.624L331.449 496.634C330.76 496.638 330.048 496.678 329.363 496.621C326.609 496.391 325.047 493.269 326.254 490.885L343.906 459.805L378.525 400.695C379.842 398.474 381.057 395.678 383.956 395.399C385.511 395.294 386.852 396.278 387.663 397.535L433.035 475.623L440.32 488.441C440.942 489.509 441.796 490.748 442.069 491.952C442.523 493.957 441.044 496.233 438.988 496.566L438.875 496.583C438.282 496.675 437.652 496.629 437.053 496.629L384.11 496.624ZM384.07 409.322L359.599 451.081L345.172 475.799L339.735 485.6C339.377 486.244 338.963 486.861 338.609 487.508L384.156 487.508L427.6 487.503C428.198 487.501 428.82 487.531 429.414 487.472L429.373 487.431C429.16 487.212 429.096 486.96 428.938 486.71L406.137 447.009L385.571 411.82C385.082 410.993 384.62 410.107 384.07 409.322Z"/>
	<path fill="#EAD7C3" d="M385.203 482.545C374.598 482.701 365.37 476.23 363.074 465.603C360.229 452.442 369.443 440.606 382.729 439.651C388.265 439.218 393.78 441.38 397.957 444.938C406.714 452.395 407.81 466.142 400.297 474.876C396.228 479.607 391.309 482.072 385.203 482.545Z"/>
	<path fill="#DCE0D9" d="M511.89 399.377L564.551 399.366C565.24 399.363 565.952 399.322 566.637 399.379C569.391 399.61 570.953 402.731 569.746 405.115L552.095 436.195L517.475 495.305C516.158 497.526 514.943 500.322 512.044 500.601C510.489 500.706 509.148 499.722 508.337 498.465L462.965 420.377L455.68 407.559C455.058 406.491 454.204 405.252 453.932 404.048C453.477 402.043 454.956 399.767 457.012 399.434L457.125 399.417C457.717 399.325 458.348 399.371 458.947 399.371L511.89 399.377ZM511.93 486.678L536.401 444.919L550.828 420.201L556.265 410.4C556.623 409.756 557.037 409.139 557.391 408.492L511.844 408.492L468.401 408.497C467.802 408.5 467.18 408.469 466.586 408.529L466.627 408.569C466.839 408.788 466.904 409.04 467.062 409.289L489.863 448.991L510.429 484.18C510.918 485.007 511.38 485.893 511.93 486.678Z"/>
	<path fill="#DCE0D9" d="M510.797 413.455C521.402 413.299 530.63 419.77 532.927 430.397C535.771 443.558 526.557 455.394 513.271 456.349C507.735 456.782 502.22 454.62 498.043 451.062C489.286 443.605 488.19 429.858 495.703 421.124C499.772 416.393 504.691 413.928 510.797 413.455Z"/>
</svg>
